# Blender 4.1.1
# www.blender.org
mtllib icons.mtl
o stop
v -0.500000 0.000000 0.500000
v 0.500000 0.000000 0.500000
v -0.500000 0.000000 -0.500000
v 0.500000 0.000000 -0.500000
vn -0.0000 1.0000 -0.0000
vt 0.000000 0.000000
vt 1.000000 0.000000
vt 1.000000 1.000000
vt 0.000000 1.000000
s 0
f 1/1/1 2/2/1 4/3/1 3/4/1
o play
v -0.375000 0.000000 0.500000
v 0.375000 0.000000 0.000000
v -0.375000 0.000000 -0.500000
v 0.375000 0.000000 0.000000
vn -0.0000 1.0000 -0.0000
vt 0.000000 0.000000
vt 1.000000 0.000000
vt 1.000000 1.000000
vt 0.000000 1.000000
s 0
f 5/5/2 6/6/2 8/7/2 7/8/2
o bg
v -0.500000 -0.103388 0.500000
v 0.500000 -0.103388 0.500000
v -0.500000 -0.103388 -0.500000
v 0.500000 -0.103388 -0.500000
vn -0.0000 1.0000 -0.0000
vt 0.000000 0.000000
vt 1.000000 0.000000
vt 1.000000 1.000000
vt 0.000000 1.000000
s 0
f 9/9/3 10/10/3 12/11/3 11/12/3
o pause
v -0.375000 0.000000 0.500000
v 0.375000 0.000000 0.500000
v -0.375000 0.000000 -0.500000
v 0.375000 0.000000 -0.500000
v -0.194553 0.000000 0.500000
v 0.194553 0.000000 0.500000
v 0.194553 0.000000 -0.500000
v -0.194553 0.000000 -0.500000
vn -0.0000 1.0000 -0.0000
vt 0.666667 0.000000
vt 1.000000 0.000000
vt 1.000000 1.000000
vt 0.666667 1.000000
vt 0.000000 0.000000
vt 0.333333 0.000000
vt 0.333333 1.000000
vt 0.000000 1.000000
s 0
f 18/13/4 14/14/4 16/15/4 19/16/4
f 13/17/4 17/18/4 20/19/4 15/20/4
o next
v -0.375000 0.000000 0.500000
v 0.375000 0.000000 0.000000
v -0.375000 0.000000 -0.500000
v 0.375000 0.000000 0.000000
v 0.211503 0.000000 0.500000
v 0.373866 0.000000 0.500000
v 0.211503 0.000000 -0.500000
v 0.373866 0.000000 -0.500000
vn -0.0000 1.0000 -0.0000
vt 0.000000 0.000000
vt 1.000000 0.000000
vt 1.000000 1.000000
vt 0.000000 1.000000
s 0
f 21/21/5 22/22/5 24/23/5 23/24/5
f 25/21/5 26/22/5 28/23/5 27/24/5
o previous
v 0.375000 0.000000 -0.500000
v -0.375000 0.000000 0.000000
v 0.375000 0.000000 0.500000
v -0.375000 0.000000 0.000000
v -0.211503 0.000000 -0.500000
v -0.373866 0.000000 -0.500000
v -0.211503 0.000000 0.500000
v -0.373866 0.000000 0.500000
vn -0.0000 1.0000 -0.0000
vt 0.000000 0.000000
vt 1.000000 0.000000
vt 1.000000 1.000000
vt 0.000000 1.000000
s 0
f 29/25/6 30/26/6 32/27/6 31/28/6
f 33/25/6 34/26/6 36/27/6 35/28/6
o volume
v -0.500000 0.000000 -0.201924
v -0.500000 0.000000 0.201924
v -0.011003 0.000000 0.375000
v -0.011003 0.000000 -0.375000
v -0.206859 0.000000 0.201924
v -0.206859 0.000000 -0.201924
v 0.146570 0.000000 0.375000
v 0.146570 0.000000 -0.375000
v 0.146570 0.000000 0.201924
v 0.146570 0.000000 -0.201924
v 0.047168 0.000000 -0.375000
v 0.047168 0.000000 0.201924
v 0.047168 0.000000 -0.201924
v 0.047168 0.000000 0.375000
v 0.225226 0.000000 -0.188098
v 0.260467 0.000000 -0.185273
v 0.291939 0.000000 -0.177313
v 0.319678 0.000000 -0.164908
v 0.343744 0.000000 -0.148658
v 0.364179 0.000000 -0.129104
v 0.380990 0.000000 -0.106756
v 0.394150 0.000000 -0.082128
v 0.403610 0.000000 -0.055749
v 0.409316 0.000000 -0.028177
v 0.411223 0.000000 0.000000
v 0.409316 0.000000 0.028177
v 0.403610 0.000000 0.055749
v 0.394150 0.000000 0.082128
v 0.380990 0.000000 0.106756
v 0.364179 0.000000 0.129104
v 0.343744 0.000000 0.148658
v 0.319678 0.000000 0.164908
v 0.291939 0.000000 0.177313
v 0.260467 0.000000 0.185273
v 0.225226 0.000000 0.188098
v 0.224597 0.000000 -0.145841
v 0.251935 0.000000 -0.143726
v 0.276396 0.000000 -0.137673
v 0.297979 0.000000 -0.128121
v 0.316684 0.000000 -0.115506
v 0.332512 0.000000 -0.100265
v 0.345461 0.000000 -0.082837
v 0.355534 0.000000 -0.063659
v 0.362728 0.000000 -0.043169
v 0.367044 0.000000 -0.021803
v 0.368483 0.000000 0.000000
v 0.367044 0.000000 0.021803
v 0.362728 0.000000 0.043169
v 0.355533 0.000000 0.063659
v 0.345461 0.000000 0.082837
v 0.332512 0.000000 0.100265
v 0.316684 0.000000 0.115506
v 0.297979 0.000000 0.128121
v 0.276396 0.000000 0.137674
v 0.251935 0.000000 0.143726
v 0.224597 0.000000 0.145841
v 0.225226 0.000000 -0.272138
v 0.276212 0.000000 -0.268051
v 0.321746 0.000000 -0.256533
v 0.361878 0.000000 -0.238586
v 0.396696 0.000000 -0.215076
v 0.426261 0.000000 -0.186785
v 0.450583 0.000000 -0.154454
v 0.469622 0.000000 -0.118822
v 0.483310 0.000000 -0.080657
v 0.491564 0.000000 -0.040766
v 0.494324 0.000000 0.000000
v 0.491564 0.000000 0.040766
v 0.483310 0.000000 0.080657
v 0.469622 0.000000 0.118822
v 0.450583 0.000000 0.154454
v 0.426261 0.000000 0.186785
v 0.396696 0.000000 0.215076
v 0.361877 0.000000 0.238586
v 0.321745 0.000000 0.256533
v 0.276212 0.000000 0.268051
v 0.225226 0.000000 0.272138
v 0.225226 0.000000 -0.226862
v 0.267752 0.000000 -0.223572
v 0.305802 0.000000 -0.214158
v 0.339375 0.000000 -0.199298
v 0.368472 0.000000 -0.179675
v 0.393093 0.000000 -0.155968
v 0.413237 0.000000 -0.128858
v 0.428904 0.000000 -0.099025
v 0.440095 0.000000 -0.067151
v 0.446810 0.000000 -0.033916
v 0.449048 0.000000 0.000000
v 0.446810 0.000000 0.033916
v 0.440095 0.000000 0.067151
v 0.428904 0.000000 0.099025
v 0.413236 0.000000 0.128858
v 0.393092 0.000000 0.155968
v 0.368472 0.000000 0.179675
v 0.339375 0.000000 0.199298
v 0.305802 0.000000 0.214158
v 0.267752 0.000000 0.223573
v 0.225226 0.000000 0.226862
vn -0.0000 1.0000 -0.0000
vn -0.0000 -1.0000 -0.0000
vt 0.000000 0.333333
vt 0.500000 0.333333
vt 0.500000 0.666667
vt 0.000000 0.666667
vt 0.679688 0.333333
vt 0.750000 0.333333
vt 0.750000 0.666667
vt 0.679688 0.666667
vt 0.679688 0.000000
vt 0.750000 0.000000
vt 0.750000 1.000000
vt 0.679688 1.000000
vt 0.500000 1.000000
vt 0.500000 0.000000
vt 0.000000 0.000000
s 0
f 38/29/7 41/30/7 42/31/7 37/32/7
f 48/33/7 45/34/7 46/35/7 49/36/7
f 50/37/7 43/38/7 45/34/7 48/33/7
f 49/36/7 46/35/7 44/39/7 47/40/7
f 42/31/7 49/36/7 47/40/7 40/41/7
f 39/42/7 50/37/7 48/33/7 41/30/7
f 41/30/7 48/33/7 49/36/7 42/31/7
f 52/43/8 53/43/8 54/43/8 55/43/8 56/43/8 57/43/8 58/43/8 59/43/8 60/43/8 61/43/8 62/43/8 63/43/8 64/43/8 65/43/8 66/43/8 67/43/8 68/43/8 69/43/8 70/43/8 71/43/8 92/43/8 91/43/8 90/43/8 89/43/8 88/43/8 87/43/8 86/43/8 85/43/8 84/43/8 83/43/8 82/43/8 81/43/8 80/43/8 79/43/8 78/43/8 77/43/8 76/43/8 75/43/8 74/43/8 73/43/8 72/43/8 51/43/8
f 94/43/8 95/43/8 96/43/8 97/43/8 98/43/8 99/43/8 100/43/8 101/43/8 102/43/8 103/43/8 104/43/8 105/43/8 106/43/8 107/43/8 108/43/8 109/43/8 110/43/8 111/43/8 112/43/8 113/43/8 134/43/8 133/43/8 132/43/8 131/43/8 130/43/8 129/43/8 128/43/8 127/43/8 126/43/8 125/43/8 124/43/8 123/43/8 122/43/8 121/43/8 120/43/8 119/43/8 118/43/8 117/43/8 116/43/8 115/43/8 114/43/8 93/43/8
o shuffle
v -0.500000 0.000000 -0.118597
v -0.110675 0.000000 -0.118597
v -0.500000 0.000000 -0.219327
v -0.110675 0.000000 -0.219327
v -0.164616 0.000000 -0.149880
v 0.110678 0.000000 0.201698
v -0.108844 0.000000 -0.221107
v 0.166450 0.000000 0.130471
v 0.108198 0.000000 0.199918
v 0.497522 0.000000 0.149553
v 0.108198 0.000000 0.099188
v 0.497522 0.000000 0.149553
v 0.407537 0.000000 0.199918
v 0.407537 0.000000 0.099188
v 0.407659 0.000000 0.011524
v 0.407659 0.000000 0.287583
v -0.500000 0.082555 0.100208
v -0.110675 0.082555 0.100208
v -0.500000 0.082555 0.200937
v -0.110675 0.082555 0.200937
v -0.164616 0.082555 0.131491
v 0.110678 0.082555 -0.220088
v -0.108844 0.082555 0.202717
v 0.166450 0.082555 -0.148861
v 0.108198 0.082555 -0.218308
v 0.497522 0.082555 -0.167943
v 0.108198 0.082555 -0.117578
v 0.497522 0.082555 -0.167943
v 0.407537 0.082555 -0.218308
v 0.407537 0.082555 -0.117578
v 0.407659 0.082555 -0.029914
v 0.407659 0.082555 -0.305972
vn -0.0000 1.0000 -0.0000
vn -0.0000 -1.0000 -0.0000
vt 0.000000 0.000000
vt 1.000000 0.000000
vt 1.000000 1.000000
vt 0.000000 1.000000
vt 0.783314 0.000000
vt 0.783314 1.000000
vt 0.768868 0.000000
vt 0.768868 1.000000
s 0
f 135/44/9 136/45/9 138/46/9 137/47/9
f 139/44/9 140/45/9 142/46/9 141/47/9
f 150/48/9 144/45/9 146/46/9 149/49/9
f 143/44/9 147/50/9 148/51/9 145/47/9
f 147/50/9 150/48/9 149/49/9 148/51/9
f 151/44/10 152/45/10 154/46/10 153/47/10
f 155/44/10 156/45/10 158/46/10 157/47/10
f 166/48/10 160/45/10 162/46/10 165/49/10
f 159/44/10 163/50/10 164/51/10 161/47/10
f 163/50/10 166/48/10 165/49/10 164/51/10
