# Blender 4.1.1
# www.blender.org
mtllib icons_triangulated.mtl
o stop
v -0.500000 -0.512924 0.012924
v 0.500000 -0.512924 0.012924
v -0.500000 0.487076 0.012924
v 0.500000 0.487076 0.012924
vn -0.0000 -0.0000 1.0000
vt 1.000000 0.000000
vt 0.000000 1.000000
vt 0.000000 0.000000
vt 1.000000 1.000000
s 0
f 2/1/1 3/2/1 1/3/1
f 2/1/1 4/4/1 3/2/1
o play
v -0.375000 -0.512924 0.012924
v 0.375000 -0.012924 0.012924
v -0.375000 0.487076 0.012924
v 0.375000 -0.012924 0.012924
vn -0.0000 -0.0000 1.0000
vt 1.000000 0.000000
vt 0.000000 1.000000
vt 0.000000 0.000000
vt 1.000000 1.000000
s 0
f 6/5/2 7/6/2 5/7/2
f 6/5/2 8/8/2 7/6/2
o bg
v -0.500000 -0.512924 -0.090465
v 0.500000 -0.512924 -0.090465
v -0.500000 0.487076 -0.090465
v 0.500000 0.487076 -0.090465
vn -0.0000 -0.0000 1.0000
vt 1.000000 0.000000
vt 0.000000 1.000000
vt 0.000000 0.000000
vt 1.000000 1.000000
s 0
f 10/9/3 11/10/3 9/11/3
f 10/9/3 12/12/3 11/10/3
o pause
v -0.375000 -0.512924 0.012924
v 0.375000 -0.512924 0.012924
v -0.375000 0.487076 0.012924
v 0.375000 0.487076 0.012924
v -0.194553 -0.512924 0.012924
v 0.194553 -0.512924 0.012924
v 0.194553 0.487076 0.012924
v -0.194553 0.487076 0.012924
vn -0.0000 -0.0000 1.0000
vt 1.000000 0.000000
vt 0.666667 1.000000
vt 0.666667 0.000000
vt 0.333333 0.000000
vt 0.000000 1.000000
vt 0.000000 0.000000
vt 1.000000 1.000000
vt 0.333333 1.000000
s 0
f 14/13/4 19/14/4 18/15/4
f 17/16/4 15/17/4 13/18/4
f 14/13/4 16/19/4 19/14/4
f 17/16/4 20/20/4 15/17/4
o next
v -0.375000 -0.512924 0.012924
v 0.375000 -0.012924 0.012924
v -0.375000 0.487076 0.012924
v 0.375000 -0.012924 0.012924
v 0.211503 -0.512924 0.012924
v 0.373866 -0.512924 0.012924
v 0.211503 0.487076 0.012924
v 0.373866 0.487076 0.012924
vn -0.0000 -0.0000 1.0000
vt 1.000000 0.000000
vt 0.000000 1.000000
vt 0.000000 0.000000
vt 1.000000 1.000000
s 0
f 22/21/5 23/22/5 21/23/5
f 26/21/5 27/22/5 25/23/5
f 22/21/5 24/24/5 23/22/5
f 26/21/5 28/24/5 27/22/5
o previous
v 0.375000 0.487076 0.012924
v -0.375000 -0.012924 0.012924
v 0.375000 -0.512924 0.012924
v -0.375000 -0.012924 0.012924
v -0.211503 0.487076 0.012924
v -0.373866 0.487076 0.012924
v -0.211503 -0.512924 0.012924
v -0.373866 -0.512924 0.012924
vn -0.0000 -0.0000 1.0000
vt 1.000000 0.000000
vt 0.000000 1.000000
vt 0.000000 0.000000
vt 1.000000 1.000000
s 0
f 30/25/6 31/26/6 29/27/6
f 34/25/6 35/26/6 33/27/6
f 30/25/6 32/28/6 31/26/6
f 34/25/6 36/28/6 35/26/6
o volume
v -0.500000 0.189000 0.012924
v -0.500000 -0.214847 0.012924
v -0.011003 -0.387924 0.012924
v -0.011003 0.362076 0.012924
v -0.206859 -0.214847 0.012924
v -0.206859 0.189000 0.012924
v 0.146570 -0.387924 0.012924
v 0.146570 0.362076 0.012924
v 0.146570 -0.214847 0.012924
v 0.146570 0.189000 0.012924
v 0.047168 0.362076 0.012924
v 0.047168 -0.214847 0.012924
v 0.047168 0.189000 0.012924
v 0.047168 -0.387924 0.012924
v 0.225226 0.175175 0.012924
v 0.260467 0.172350 0.012924
v 0.291939 0.164389 0.012924
v 0.319678 0.151984 0.012924
v 0.343744 0.135735 0.012924
v 0.364179 0.116180 0.012924
v 0.380990 0.093833 0.012924
v 0.394150 0.069205 0.012924
v 0.403610 0.042825 0.012924
v 0.409316 0.015253 0.012924
v 0.411223 -0.012924 0.012924
v 0.409316 -0.041101 0.012924
v 0.403610 -0.068672 0.012924
v 0.394150 -0.095052 0.012924
v 0.380990 -0.119680 0.012924
v 0.364179 -0.142027 0.012924
v 0.343744 -0.161582 0.012924
v 0.319678 -0.177831 0.012924
v 0.291939 -0.190236 0.012924
v 0.260467 -0.198197 0.012924
v 0.225226 -0.201022 0.012924
v 0.224597 0.132917 0.012924
v 0.251935 0.130802 0.012924
v 0.276396 0.124750 0.012924
v 0.297979 0.115197 0.012924
v 0.316684 0.102582 0.012924
v 0.332512 0.087342 0.012924
v 0.345461 0.069914 0.012924
v 0.355534 0.050736 0.012924
v 0.362728 0.030245 0.012924
v 0.367044 0.008880 0.012924
v 0.368483 -0.012924 0.012924
v 0.367044 -0.034727 0.012924
v 0.362728 -0.056092 0.012924
v 0.355533 -0.076583 0.012924
v 0.345461 -0.095761 0.012924
v 0.332512 -0.113189 0.012924
v 0.316684 -0.128429 0.012924
v 0.297979 -0.141045 0.012924
v 0.276396 -0.150597 0.012924
v 0.251935 -0.156649 0.012924
v 0.224597 -0.158764 0.012924
v 0.225226 0.259214 0.012924
v 0.276212 0.255127 0.012924
v 0.321746 0.243610 0.012924
v 0.361878 0.225662 0.012924
v 0.396696 0.202153 0.012924
v 0.426261 0.173862 0.012924
v 0.450583 0.141530 0.012924
v 0.469622 0.105898 0.012924
v 0.483310 0.067733 0.012924
v 0.491564 0.027842 0.012924
v 0.494324 -0.012924 0.012924
v 0.491564 -0.053690 0.012924
v 0.483310 -0.093580 0.012924
v 0.469622 -0.131745 0.012924
v 0.450583 -0.167377 0.012924
v 0.426261 -0.199709 0.012924
v 0.396696 -0.228000 0.012924
v 0.361877 -0.251510 0.012924
v 0.321745 -0.269457 0.012924
v 0.276212 -0.280974 0.012924
v 0.225226 -0.285061 0.012924
v 0.225226 0.213938 0.012924
v 0.267752 0.210649 0.012924
v 0.305802 0.201234 0.012924
v 0.339375 0.186375 0.012924
v 0.368472 0.166751 0.012924
v 0.393093 0.143044 0.012924
v 0.413237 0.115934 0.012924
v 0.428904 0.086102 0.012924
v 0.440095 0.054228 0.012924
v 0.446810 0.020992 0.012924
v 0.449048 -0.012924 0.012924
v 0.446810 -0.046839 0.012924
v 0.440095 -0.080075 0.012924
v 0.428904 -0.111949 0.012924
v 0.413236 -0.141781 0.012924
v 0.393092 -0.168891 0.012924
v 0.368472 -0.192598 0.012924
v 0.339375 -0.212222 0.012924
v 0.305802 -0.227081 0.012924
v 0.267752 -0.236496 0.012924
v 0.225226 -0.239785 0.012924
vn -0.0000 -0.0000 1.0000
vn -0.0000 -0.0000 -1.0000
vt 0.500000 0.333333
vt 0.000000 0.666667
vt 0.000000 0.333333
vt 0.750000 0.333333
vt 0.679688 0.666667
vt 0.679688 0.333333
vt 0.679688 0.000000
vt 0.750000 0.666667
vt 0.679688 1.000000
vt 0.500000 1.000000
vt 0.500000 0.666667
vt 0.500000 0.000000
vt 0.000000 0.000000
vt 0.750000 0.000000
vt 0.750000 1.000000
s 0
f 41/29/7 37/30/7 38/31/7
f 45/32/7 49/33/7 48/34/7
f 50/35/7 45/32/7 48/34/7
f 46/36/7 47/37/7 49/33/7
f 49/33/7 40/38/7 42/39/7
f 39/40/7 48/34/7 41/29/7
f 48/34/7 42/39/7 41/29/7
f 61/41/8 83/41/8 82/41/8
f 123/41/8 122/41/8 102/41/8
f 41/29/7 42/39/7 37/30/7
f 45/32/7 46/36/7 49/33/7
f 50/35/7 43/42/7 45/32/7
f 46/36/7 44/43/7 47/37/7
f 49/33/7 47/37/7 40/38/7
f 39/40/7 50/35/7 48/34/7
f 48/34/7 49/33/7 42/39/7
f 51/41/8 52/41/8 73/41/8
f 52/41/8 53/41/8 74/41/8
f 53/41/8 54/41/8 75/41/8
f 54/41/8 55/41/8 76/41/8
f 55/41/8 56/41/8 76/41/8
f 56/41/8 57/41/8 77/41/8
f 76/41/8 56/41/8 77/41/8
f 57/41/8 58/41/8 78/41/8
f 58/41/8 59/41/8 79/41/8
f 78/41/8 58/41/8 79/41/8
f 59/41/8 60/41/8 80/41/8
f 60/41/8 61/41/8 81/41/8
f 81/41/8 61/41/8 82/41/8
f 61/41/8 62/41/8 83/41/8
f 62/41/8 63/41/8 84/41/8
f 63/41/8 64/41/8 85/41/8
f 64/41/8 65/41/8 86/41/8
f 85/41/8 64/41/8 86/41/8
f 65/41/8 66/41/8 87/41/8
f 66/41/8 67/41/8 88/41/8
f 65/41/8 87/41/8 86/41/8
f 67/41/8 68/41/8 88/41/8
f 68/41/8 69/41/8 89/41/8
f 89/41/8 69/41/8 90/41/8
f 69/41/8 70/41/8 90/41/8
f 70/41/8 71/41/8 91/41/8
f 90/41/8 70/41/8 91/41/8
f 71/41/8 92/41/8 91/41/8
f 62/41/8 84/41/8 83/41/8
f 52/41/8 74/41/8 73/41/8
f 54/41/8 76/41/8 75/41/8
f 73/41/8 72/41/8 51/41/8
f 68/41/8 89/41/8 88/41/8
f 75/41/8 74/41/8 53/41/8
f 88/41/8 87/41/8 66/41/8
f 77/41/8 57/41/8 78/41/8
f 63/41/8 85/41/8 84/41/8
f 80/41/8 79/41/8 59/41/8
f 81/41/8 80/41/8 60/41/8
f 93/41/8 94/41/8 115/41/8
f 94/41/8 95/41/8 116/41/8
f 95/41/8 96/41/8 117/41/8
f 96/41/8 97/41/8 118/41/8
f 95/41/8 117/41/8 116/41/8
f 97/41/8 98/41/8 118/41/8
f 98/41/8 99/41/8 119/41/8
f 99/41/8 100/41/8 120/41/8
f 100/41/8 101/41/8 121/41/8
f 120/41/8 100/41/8 121/41/8
f 101/41/8 102/41/8 122/41/8
f 102/41/8 103/41/8 123/41/8
f 123/41/8 103/41/8 124/41/8
f 103/41/8 104/41/8 125/41/8
f 104/41/8 105/41/8 126/41/8
f 105/41/8 106/41/8 127/41/8
f 106/41/8 107/41/8 128/41/8
f 107/41/8 108/41/8 129/41/8
f 108/41/8 109/41/8 130/41/8
f 129/41/8 108/41/8 130/41/8
f 109/41/8 110/41/8 130/41/8
f 110/41/8 111/41/8 131/41/8
f 131/41/8 111/41/8 132/41/8
f 111/41/8 112/41/8 132/41/8
f 112/41/8 113/41/8 133/41/8
f 132/41/8 112/41/8 133/41/8
f 113/41/8 134/41/8 133/41/8
f 106/41/8 128/41/8 127/41/8
f 104/41/8 126/41/8 125/41/8
f 98/41/8 119/41/8 118/41/8
f 119/41/8 99/41/8 120/41/8
f 94/41/8 116/41/8 115/41/8
f 115/41/8 114/41/8 93/41/8
f 110/41/8 131/41/8 130/41/8
f 117/41/8 96/41/8 118/41/8
f 107/41/8 129/41/8 128/41/8
f 105/41/8 127/41/8 126/41/8
f 122/41/8 121/41/8 101/41/8
f 103/41/8 125/41/8 124/41/8
o shuffle
v -0.500000 0.105674 0.012924
v -0.110675 0.105674 0.012924
v -0.500000 0.206403 0.012924
v -0.110675 0.206403 0.012924
v -0.164616 0.136957 0.012924
v 0.110678 -0.214622 0.012924
v -0.108844 0.208183 0.012924
v 0.166450 -0.143395 0.012924
v 0.108198 -0.212842 0.012924
v 0.497522 -0.162477 0.012924
v 0.108198 -0.112112 0.012924
v 0.497522 -0.162477 0.012924
v 0.407537 -0.212842 0.012924
v 0.407537 -0.112112 0.012924
v 0.407659 -0.024448 0.012924
v 0.407659 -0.300506 0.012924
v -0.500000 -0.113131 0.095479
v -0.110675 -0.113131 0.095479
v -0.500000 -0.213861 0.095479
v -0.110675 -0.213861 0.095479
v -0.164616 -0.144414 0.095479
v 0.110678 0.207164 0.095479
v -0.108844 -0.215641 0.095479
v 0.166450 0.135937 0.095479
v 0.108198 0.205384 0.095479
v 0.497522 0.155019 0.095479
v 0.108198 0.104654 0.095479
v 0.497522 0.155019 0.095479
v 0.407537 0.205384 0.095479
v 0.407537 0.104654 0.095479
v 0.407659 0.016990 0.095479
v 0.407659 0.293049 0.095479
vn -0.0000 -0.0000 1.0000
vn -0.0000 -0.0000 -1.0000
vt 1.000000 0.000000
vt 0.000000 1.000000
vt 0.000000 0.000000
vt 1.000000 1.000000
vt 0.783314 0.000000
vt 0.783314 1.000000
vt 0.768868 0.000000
vt 0.768868 1.000000
s 0
f 136/44/9 137/45/9 135/46/9
f 139/46/9 142/47/9 141/45/9
f 150/48/9 146/47/9 149/49/9
f 147/50/9 145/45/9 143/46/9
f 150/48/9 148/51/9 147/50/9
f 152/44/10 153/45/10 151/46/10
f 155/46/10 158/47/10 157/45/10
f 166/48/10 162/47/10 165/49/10
f 163/50/10 161/45/10 159/46/10
f 166/48/10 164/51/10 163/50/10
f 136/44/9 138/47/9 137/45/9
f 139/46/9 140/44/9 142/47/9
f 150/48/9 144/44/9 146/47/9
f 147/50/9 148/51/9 145/45/9
f 150/48/9 149/49/9 148/51/9
f 152/44/10 154/47/10 153/45/10
f 155/46/10 156/44/10 158/47/10
f 166/48/9 160/44/9 162/47/9
f 163/50/10 164/51/10 161/45/10
f 166/48/10 165/49/10 164/51/10
o home
v 0.000000 0.487076 0.012924
v 0.000000 0.487076 0.012924
v -0.276133 -0.512924 0.012924
v 0.276133 -0.512924 0.012924
v 0.000000 0.487076 0.012924
v 0.000000 0.487076 0.012924
v -0.500000 -0.012924 0.012924
v 0.500000 -0.012924 0.012924
v -0.276133 -0.012924 0.012924
v 0.276133 -0.012924 0.012924
v -0.121317 -0.512924 0.012924
v 0.121317 -0.512924 0.012924
v 0.000000 0.487076 0.012924
v 0.000000 0.487076 0.012924
v 0.121317 -0.012924 0.012924
v -0.121317 -0.012924 0.012924
v -0.276133 -0.178740 0.012924
v 0.276133 -0.178740 0.012924
v -0.121317 -0.178740 0.012924
v 0.121317 -0.178740 0.012924
vn -0.0000 -0.0000 1.0000
vt 0.666667 0.500000
vt 1.000000 1.000000
vt 0.666667 1.000000
vt 0.333333 0.500000
vt 0.000000 1.000000
vt 0.000000 0.500000
vt 0.555555 0.500000
vt 0.496636 1.000000
vt 0.666667 0.334184
vt 0.555555 0.334184
vt 0.444444 0.334184
vt 0.333333 0.334184
vt 0.444444 0.500000
vt 0.333333 1.000000
vt 0.392252 1.000000
vt 0.444444 0.000000
vt 0.333333 0.000000
vt 0.666667 0.000000
vt 0.555556 0.000000
vt 1.000000 0.500000
s 0
f 176/52/11 168/53/11 171/54/11
f 175/55/11 167/56/11 173/57/11
f 181/58/11 171/54/11 179/59/11
f 184/60/11 181/58/11 186/61/11
f 185/62/11 175/55/11 183/63/11
f 186/61/11 182/64/11 185/62/11
f 182/64/11 172/65/11 175/55/11
f 181/58/11 180/66/11 182/64/11
f 177/67/11 183/63/11 169/68/11
f 170/69/11 186/61/11 178/70/11
f 176/52/11 174/71/11 168/53/11
f 175/55/11 172/65/11 167/56/11
f 181/58/11 176/52/11 171/54/11
f 184/60/11 176/52/11 181/58/11
f 185/62/11 182/64/11 175/55/11
f 186/61/11 181/58/11 182/64/11
f 182/64/11 180/66/11 172/65/11
f 181/58/11 179/59/11 180/66/11
f 177/67/11 185/62/11 183/63/11
f 170/69/11 184/60/11 186/61/11
o hamburger
v -0.500000 -0.512924 0.012924
v 0.500000 -0.512924 0.012924
v -0.500000 0.487076 0.012924
v 0.500000 0.487076 0.012924
v -0.500000 0.287076 0.012924
v -0.500000 0.087076 0.012924
v -0.500000 -0.112924 0.012924
v -0.500000 -0.312924 0.012924
v 0.500000 -0.312924 0.012924
v 0.500000 -0.112924 0.012924
v 0.500000 0.087076 0.012924
v 0.500000 0.287076 0.012924
vn -0.0000 -0.0000 1.0000
vt 1.000000 0.800000
vt 0.000000 1.000000
vt 0.000000 0.800000
vt 1.000000 0.000000
vt 0.000000 0.200000
vt 0.000000 0.000000
vt 1.000000 0.400000
vt 0.000000 0.600000
vt 0.000000 0.400000
vt 1.000000 1.000000
vt 1.000000 0.200000
vt 1.000000 0.600000
s 0
f 198/72/12 189/73/12 191/74/12
f 188/75/12 194/76/12 187/77/12
f 196/78/12 192/79/12 193/80/12
f 198/72/12 190/81/12 189/73/12
f 188/75/12 195/82/12 194/76/12
f 196/78/12 197/83/12 192/79/12
o pin
v -0.251858 -0.246207 0.012924
v 0.251858 -0.246207 0.012924
v -0.251858 0.487076 0.012924
v 0.251858 0.487076 0.012924
v -0.240502 0.393130 0.012924
v -0.240502 -0.152260 0.012924
v 0.240502 -0.152260 0.012924
v 0.240502 0.393130 0.012924
v -0.169593 0.380163 0.012924
v -0.169593 -0.139293 0.012924
v 0.169593 -0.139293 0.012924
v 0.169593 0.380163 0.012924
v -0.056679 -0.253542 0.012924
v 0.056679 -0.253542 0.012924
v -0.029505 -0.502619 0.012924
v 0.029505 -0.502619 0.012924
v 0.000000 -0.510579 0.012924
v 0.000000 -0.510579 0.012924
vn -0.0000 -0.0000 1.0000
vt 1.000000 0.666667
vt 0.000000 1.000000
vt 0.000000 0.666667
vt 1.000000 0.000000
vt 0.000000 0.333333
vt 0.000000 0.000000
vt 1.000000 0.555555
vt 0.000000 0.555555
vt 1.000000 0.333333
vt 0.000000 0.444444
vt 1.000000 0.444444
vt 1.000000 1.000000
s 0
f 206/84/13 201/85/13 203/86/13
f 200/87/13 204/88/13 199/89/13
f 210/90/13 203/86/13 207/91/13
f 205/92/13 208/93/13 204/88/13
f 209/94/13 207/91/13 208/93/13
f 199/89/13 212/87/13 200/87/13
f 211/89/13 214/87/13 212/87/13
f 213/89/13 216/87/13 214/87/13
f 206/84/13 202/95/13 201/85/13
f 200/87/13 205/92/13 204/88/13
f 210/90/13 206/84/13 203/86/13
f 205/92/13 209/94/13 208/93/13
f 209/94/13 210/90/13 207/91/13
f 199/89/13 211/89/13 212/87/13
f 211/89/13 213/89/13 214/87/13
f 213/89/13 215/89/13 216/87/13
o x
v -0.392791 -0.327240 0.012924
v -0.314316 -0.405714 0.012924
v 0.314316 0.379867 0.012924
v 0.392791 0.301393 0.012924
v -0.314316 0.379867 0.012924
v -0.392791 0.301393 0.012924
v 0.392791 -0.327240 0.012924
v 0.314316 -0.405714 0.012924
vn -0.0000 -0.0000 1.0000
vt 1.000000 0.000000
vt 0.000000 1.000000
vt 0.000000 0.000000
vt 1.000000 1.000000
s 0
f 218/96/14 219/97/14 217/98/14
f 222/96/14 223/97/14 221/98/14
f 218/96/14 220/99/14 219/97/14
f 222/96/14 224/99/14 223/97/14
o dash
v -0.413833 -0.082576 0.012924
v 0.413833 -0.082576 0.012924
v -0.413833 0.056729 0.012924
v 0.413833 0.056729 0.012924
vn -0.0000 -0.0000 1.0000
vt 1.000000 0.000000
vt 0.000000 1.000000
vt 0.000000 0.000000
vt 1.000000 1.000000
s 0
f 226/100/15 227/101/15 225/102/15
f 226/100/15 228/103/15 227/101/15
o one
v 0.291590 0.290719 0.052082
v 0.291590 0.305334 0.052082
v 0.291590 0.290719 -0.052082
v 0.291590 0.305334 -0.052082
v 0.395755 0.290719 0.052082
v 0.395755 0.305334 0.052082
v 0.395755 0.290719 -0.052082
v 0.395755 0.305334 -0.052082
v 0.361033 0.290719 -0.052082
v 0.326312 0.290719 -0.052082
v 0.326312 0.305334 -0.052082
v 0.361033 0.305334 -0.052082
v 0.326312 0.290719 0.052082
v 0.361033 0.290719 0.052082
v 0.361033 0.305334 0.052082
v 0.326312 0.305334 0.052082
v 0.326312 0.408115 -0.052082
v 0.361033 0.426028 -0.052082
v 0.361033 0.426028 0.052082
v 0.326312 0.408115 0.052082
v 0.326312 0.390229 0.052082
v 0.326312 0.390229 -0.052082
v 0.361033 0.390229 0.052082
v 0.361033 0.390229 -0.052082
v 0.289023 0.389906 -0.052082
v 0.289023 0.389906 0.052082
v 0.289023 0.389906 0.052082
v 0.289023 0.389906 -0.052082
vn -1.0000 -0.0000 -0.0000
vn -0.0000 -0.0000 -1.0000
vn 1.0000 -0.0000 -0.0000
vn -0.0000 -0.0000 1.0000
vn -0.0000 -1.0000 -0.0000
vn -0.0000 1.0000 -0.0000
vn -0.4585 0.8887 -0.0000
vn 0.0087 -1.0000 -0.0000
vn -0.4388 0.8986 -0.0000
vt 0.625000 0.000000
vt 0.375000 0.250000
vt 0.375000 0.000000
vt 0.625000 0.416667
vt 0.375000 0.500000
vt 0.375000 0.416667
vt 0.625000 0.500000
vt 0.375000 0.750000
vt 0.625000 0.916667
vt 0.375000 1.000000
vt 0.375000 0.916667
vt 0.291667 0.750000
vt 0.291667 0.500000
vt 0.875000 0.500000
vt 0.791667 0.750000
vt 0.791667 0.500000
vt 0.708333 0.500000
vt 0.625000 0.750000
vt 0.208333 0.500000
vt 0.125000 0.750000
vt 0.125000 0.500000
vt 0.208333 0.750000
vt 0.375000 0.833333
vt 0.625000 0.833333
vt 0.625000 0.250000
vt 0.375000 0.333333
vt 0.625000 0.333333
vt 0.708333 0.750000
vt 0.625000 0.833333
vt 0.625000 1.000000
vt 0.875000 0.750000
s 0
f 230/104/16 231/105/16 229/106/16
f 240/107/17 235/108/17 237/109/17
f 236/110/18 233/111/18 235/108/18
f 244/112/19 229/113/19 241/114/19
f 235/108/20 242/115/20 237/116/20
f 232/117/21 244/118/21 239/119/21
f 240/120/21 234/121/21 236/110/21
f 249/112/21 254/112/21 255/112/21
f 238/122/20 229/123/20 231/124/20
f 237/116/20 241/125/20 238/122/20
f 234/121/19 242/126/19 233/111/19
f 243/127/19 241/114/19 242/126/19
f 232/128/17 238/129/17 231/105/17
f 239/130/17 237/109/17 238/129/17
f 245/119/22 247/131/22 246/120/22
f 251/132/19 248/112/19 249/112/19
f 252/107/17 245/130/17 246/107/17
f 252/120/18 247/131/18 251/131/18
f 240/120/18 251/131/18 243/131/18
f 239/130/17 252/107/17 240/107/17
f 243/127/19 249/112/19 244/112/19
f 244/118/16 250/119/16 239/119/16
f 255/118/21 253/119/21 256/119/21
f 249/118/23 256/119/23 250/119/23
f 250/130/17 253/130/17 245/130/17
f 245/119/24 254/118/24 248/118/24
f 230/104/16 232/128/16 231/105/16
f 240/107/17 236/110/17 235/108/17
f 236/110/18 234/121/18 233/111/18
f 244/112/19 230/133/19 229/113/19
f 235/108/20 233/111/20 242/115/20
f 232/117/21 230/134/21 244/118/21
f 240/120/21 243/131/21 234/121/21
f 249/112/19 248/112/19 254/112/19
f 238/122/20 241/125/20 229/123/20
f 237/116/20 242/115/20 241/125/20
f 234/121/19 243/127/19 242/126/19
f 243/127/19 244/112/19 241/114/19
f 232/128/17 239/130/17 238/129/17
f 239/130/17 240/107/17 237/109/17
f 245/119/22 248/118/22 247/131/22
f 251/132/19 247/127/19 248/112/19
f 252/107/17 250/130/17 245/130/17
f 252/120/18 246/120/18 247/131/18
f 240/120/18 252/120/18 251/131/18
f 239/130/17 250/130/17 252/107/17
f 243/127/19 251/132/19 249/112/19
f 244/118/16 249/118/16 250/119/16
f 255/118/21 254/118/21 253/119/21
f 249/118/23 255/118/23 256/119/23
f 250/130/21 256/130/21 253/130/21
f 245/119/24 253/119/24 254/118/24
o play_once
v 0.243259 -0.313018 0.000000
v -0.500000 -0.313018 0.000000
v 0.243259 -0.186982 0.000000
v -0.500000 -0.186982 0.000000
v 0.250787 0.453259 -0.000000
v 0.207623 0.449007 -0.000000
v 0.166117 0.436417 -0.000000
v 0.127865 0.415970 -0.000000
v 0.094336 0.388455 -0.000000
v 0.066820 0.354926 -0.000000
v 0.046374 0.316674 -0.000000
v 0.033784 0.275168 -0.000000
v 0.029532 0.232003 -0.000000
v 0.033784 0.188839 -0.000000
v 0.046374 0.147333 -0.000000
v 0.066820 0.109081 -0.000000
v 0.094336 0.075552 -0.000000
v 0.127865 0.048036 -0.000000
v 0.166117 0.027590 -0.000000
v 0.207623 0.014999 -0.000000
v 0.250787 0.010748 -0.000000
v 0.293952 0.014999 -0.000000
v 0.335458 0.027590 -0.000000
v 0.373710 0.048036 -0.000000
v 0.407239 0.075552 -0.000000
v 0.434755 0.109081 -0.000000
v 0.455201 0.147333 -0.000000
v 0.467791 0.188839 -0.000000
v 0.472043 0.232003 -0.000000
v 0.467791 0.275168 -0.000000
v 0.455201 0.316674 -0.000000
v 0.434755 0.354926 -0.000000
v 0.407239 0.388455 -0.000000
v 0.373710 0.415970 -0.000000
v 0.335458 0.436417 -0.000000
v 0.293952 0.449007 -0.000000
v 0.294947 0.392057 -0.000000
v 0.229844 0.324934 -0.000000
v 0.203693 0.345701 -0.000000
v 0.294947 0.165757 -0.000000
v 0.229844 0.358471 -0.000000
v 0.360050 0.165757 -0.000000
v 0.360050 0.138353 -0.000000
v 0.164741 0.138353 -0.000000
v 0.164741 0.165757 -0.000000
v 0.159928 0.324330 -0.000000
v 0.229844 0.165757 -0.000000
v 0.243259 -0.463685 0.000000
v 0.243259 -0.036315 0.000000
v 0.496944 -0.250000 0.000000
v 0.496944 -0.250000 0.000000
vn -0.0000 -0.0000 -1.0000
vn -0.0000 1.0000 -0.0000
vt 1.000000 0.000000
vt 0.000000 1.000000
vt 0.000000 0.000000
vt 1.000000 1.000000
s 0
f 259/135/25 258/136/25 260/137/25
f 293/137/25 297/137/25 261/137/25
f 299/137/25 298/137/25 283/137/25
f 259/135/25 304/138/25 257/138/25
f 305/135/25 306/138/25 304/138/25
f 259/135/25 257/138/25 258/136/25
f 295/137/25 263/137/25 297/137/25
f 263/137/25 262/137/25 297/137/25
f 262/137/25 261/137/25 297/137/25
f 261/137/25 292/137/25 293/137/25
f 292/137/25 291/137/25 293/137/25
f 294/137/25 303/137/25 301/137/25
f 302/137/25 294/137/25 301/137/25
f 263/137/25 295/137/25 264/137/25
f 295/137/25 302/137/25 264/137/25
f 265/137/25 264/137/25 302/137/25
f 267/137/25 266/137/25 302/137/25
f 266/137/25 265/137/25 302/137/25
f 269/137/25 268/137/25 302/137/25
f 268/137/25 267/137/25 302/137/25
f 271/137/25 270/137/25 301/137/25
f 270/137/25 269/137/25 301/137/25
f 273/137/25 272/137/25 300/137/25
f 272/137/25 271/137/25 301/137/25
f 300/137/25 272/137/25 301/137/25
f 275/137/25 274/137/25 300/137/25
f 274/137/25 273/137/25 300/137/25
f 277/137/25 276/137/25 300/137/25
f 276/137/25 275/137/25 300/137/25
f 279/137/25 278/137/25 299/137/25
f 278/137/25 277/137/25 299/137/25
f 281/137/25 280/137/25 299/137/25
f 280/137/25 279/137/25 299/137/25
f 283/137/25 282/137/25 299/137/25
f 282/137/25 281/137/25 299/137/25
f 285/137/25 284/137/25 298/137/25
f 284/137/25 283/137/25 298/137/25
f 287/137/25 286/137/25 298/137/25
f 286/137/25 285/137/25 298/137/25
f 289/137/25 288/137/25 293/137/25
f 288/137/25 287/137/25 298/137/25
f 293/137/25 288/137/25 298/137/25
f 291/137/25 290/137/25 293/137/25
f 290/137/25 289/137/25 293/137/25
f 296/137/25 293/137/25 298/137/25
f 299/137/25 277/137/25 300/137/25
f 302/137/25 301/137/25 269/137/25
f 259/135/26 305/135/26 304/138/26
f 305/135/26 307/135/26 306/138/26
o up_down_arrow
v -0.171618 -0.173618 0.012924
v 0.171618 -0.173618 0.012924
v -0.171618 0.147771 0.012924
v 0.171618 0.147771 0.012924
v -0.431969 -0.173618 0.012924
v 0.431969 -0.173618 0.012924
v -0.431969 0.147771 0.012924
v 0.431969 0.147771 0.012924
v 0.000000 -0.509004 0.012924
v 0.000000 -0.509004 0.012924
v 0.000000 0.483157 0.012924
v 0.000000 0.483157 0.012924
vn -0.0000 -0.0000 1.0000
vn -0.0000 -0.0000 -1.0000
vt 1.000000 0.000000
vt 0.000000 1.000000
vt 0.000000 0.000000
vt 1.000000 1.000000
s 0
f 309/139/27 310/140/27 308/141/27
f 311/142/28 314/140/28 310/140/28
f 308/141/28 313/139/28 309/139/28
f 315/142/27 318/140/27 314/140/27
f 312/141/27 317/139/27 313/139/27
f 309/139/27 311/142/27 310/140/27
f 311/142/27 315/142/27 314/140/27
f 308/141/27 312/141/27 313/139/27
f 315/142/27 319/142/27 318/140/27
f 312/141/27 316/141/27 317/139/27
o loop
v -0.500000 0.000000 0.000000
v -0.494822 0.058637 0.000000
v -0.479908 0.112503 0.000000
v -0.456188 0.161534 0.000000
v -0.424594 0.205670 0.000000
v -0.386055 0.244847 0.000000
v -0.341503 0.279003 0.000000
v -0.291866 0.308075 0.000000
v -0.238077 0.332002 0.000000
v -0.181065 0.350720 0.000000
v 0.181066 0.350720 0.000000
v 0.238077 0.332002 0.000000
v 0.291866 0.308075 0.000000
v 0.341503 0.279003 0.000000
v 0.386055 0.244847 0.000000
v 0.424594 0.205670 0.000000
v 0.456188 0.161534 0.000000
v 0.479908 0.112502 0.000000
v 0.494822 0.058637 0.000000
v 0.500000 0.000000 0.000000
v 0.494822 -0.058637 0.000000
v 0.479908 -0.112503 0.000000
v 0.456188 -0.161534 0.000000
v 0.424594 -0.205670 0.000000
v 0.386055 -0.244847 0.000000
v 0.341503 -0.279003 0.000000
v 0.291866 -0.308075 0.000000
v 0.238077 -0.332002 0.000000
v 0.181065 -0.350720 0.000000
v 0.121762 -0.364167 0.000000
v 0.061096 -0.372281 0.000000
v 0.000000 -0.375000 0.000000
v -0.061096 -0.372281 0.000000
v -0.121762 -0.364167 0.000000
v -0.181066 -0.350720 0.000000
v -0.238077 -0.332002 0.000000
v -0.291866 -0.308075 0.000000
v -0.341503 -0.279003 0.000000
v -0.386055 -0.244847 0.000000
v -0.424594 -0.205670 0.000000
v -0.456188 -0.161534 0.000000
v -0.479908 -0.112502 0.000000
v -0.494822 -0.058637 0.000000
v -0.335934 -0.039808 0.000000
v -0.324131 -0.075984 0.000000
v -0.305365 -0.108128 0.000000
v -0.250939 -0.159152 0.000000
v -0.280598 -0.135919 0.000000
v -0.217597 -0.177773 0.000000
v -0.181826 -0.191924 0.000000
v -0.107667 -0.208549 0.000000
v -0.144837 -0.201977 0.000000
v -0.071026 -0.212424 0.000000
v 0.217597 -0.177774 0.000000
v 0.250939 -0.159152 0.000000
v 0.305365 0.108128 0.000000
v 0.280598 -0.135919 0.000000
v 0.280598 0.135919 0.000000
v 0.324131 0.075984 0.000000
v 0.340000 0.000000 0.000000
v 0.335934 -0.039808 0.000000
v 0.335934 0.039808 0.000000
v 0.305365 -0.108128 0.000000
v 0.324131 -0.075984 0.000000
v -0.280598 0.135919 0.000000
v -0.181826 0.191924 0.000000
v -0.217597 0.177774 0.000000
v -0.250939 0.159152 0.000000
v -0.144837 0.201977 0.000000
v -0.340000 0.000000 0.000000
v -0.335934 0.039808 0.000000
v -0.324131 0.075984 0.000000
v -0.305365 0.108128 0.000000
v 0.000000 -0.215000 0.000000
v -0.035185 -0.214393 0.000000
v 0.035185 -0.214393 0.000000
v 0.071026 -0.212425 0.000000
v 0.144837 -0.201977 0.000000
v 0.144837 0.201977 0.000000
v 0.107667 -0.208549 0.000000
v 0.181826 -0.191924 0.000000
v 0.250939 0.159152 0.000000
v 0.217597 0.177773 0.000000
v 0.181826 0.191924 0.000000
v -0.144222 0.359074 0.000000
v 0.144222 0.359074 0.000000
v 0.144222 0.202086 0.000000
v -0.144222 0.202086 0.000000
v 0.144222 0.433288 0.000000
v 0.144222 0.127873 0.000000
v -0.112519 0.280580 0.000000
v -0.112519 0.280580 0.000000
vn -0.0000 -0.0000 1.0000
vn -0.0000 1.0000 -0.0000
vt 0.000000 0.000000
s 0
f 374/143/29 373/143/29 346/143/29
f 321/143/29 389/143/29 390/143/29
f 331/143/29 330/143/29 403/143/29
f 405/143/29 409/143/29 406/143/29
f 408/143/29 411/143/29 409/143/29
f 338/143/29 337/143/29 381/143/29
f 337/143/29 336/143/29 378/143/29
f 336/143/29 335/143/29 375/143/29
f 335/143/29 334/143/29 375/143/29
f 336/143/29 375/143/29 378/143/29
f 334/143/29 333/143/29 377/143/29
f 333/143/29 332/143/29 401/143/29
f 377/143/29 333/143/29 401/143/29
f 332/143/29 402/143/29 401/143/29
f 339/143/29 338/143/29 379/143/29
f 337/143/29 378/143/29 381/143/29
f 341/143/29 340/143/29 380/143/29
f 340/143/29 339/143/29 379/143/29
f 343/143/29 342/143/29 382/143/29
f 342/143/29 341/143/29 383/143/29
f 383/143/29 341/143/29 380/143/29
f 345/143/29 344/143/29 376/143/29
f 344/143/29 343/143/29 382/143/29
f 345/143/29 376/143/29 374/143/29
f 347/143/29 346/143/29 373/143/29
f 346/143/29 345/143/29 374/143/29
f 347/143/29 373/143/29 400/143/29
f 349/143/29 348/143/29 399/143/29
f 348/143/29 347/143/29 400/143/29
f 349/143/29 399/143/29 396/143/29
f 351/143/29 350/143/29 395/143/29
f 350/143/29 349/143/29 396/143/29
f 353/143/29 352/143/29 372/143/29
f 352/143/29 351/143/29 394/143/29
f 353/143/29 372/143/29 370/143/29
f 355/143/29 354/143/29 369/143/29
f 354/143/29 353/143/29 370/143/29
f 369/143/29 354/143/29 371/143/29
f 368/143/29 356/143/29 355/143/29
f 369/143/29 368/143/29 355/143/29
f 350/143/29 396/143/29 395/143/29
f 340/143/29 379/143/29 380/143/29
f 377/143/29 375/143/29 334/143/29
f 371/143/29 354/143/29 370/143/29
f 338/143/29 381/143/29 379/143/29
f 372/143/29 352/143/29 394/143/29
f 393/143/29 394/143/29 351/143/29
f 342/143/29 383/143/29 382/143/29
f 395/143/29 393/143/29 351/143/29
f 382/143/29 376/143/29 344/143/29
f 399/143/29 348/143/29 397/143/29
f 397/143/29 348/143/29 400/143/29
f 407/143/29 404/143/29 329/143/29
f 329/143/29 328/143/29 385/143/29
f 328/143/29 327/143/29 386/143/29
f 327/143/29 326/143/29 387/143/29
f 326/143/29 325/143/29 384/143/29
f 387/143/29 326/143/29 384/143/29
f 325/143/29 324/143/29 392/143/29
f 324/143/29 323/143/29 392/143/29
f 325/143/29 392/143/29 384/143/29
f 323/143/29 322/143/29 391/143/29
f 322/143/29 321/143/29 390/143/29
f 391/143/29 322/143/29 390/143/29
f 321/143/29 320/143/29 389/143/29
f 320/143/29 362/143/29 389/143/29
f 389/143/29 362/143/29 363/143/29
f 362/143/29 361/143/29 363/143/29
f 361/143/29 360/143/29 364/143/29
f 360/143/29 359/143/29 365/143/29
f 359/143/29 358/143/29 365/143/29
f 360/143/29 365/143/29 364/143/29
f 358/143/29 357/143/29 367/143/29
f 357/143/29 356/143/29 366/143/29
f 367/143/29 357/143/29 366/143/29
f 356/143/29 368/143/29 366/143/29
f 361/143/29 364/143/29 363/143/29
f 328/143/29 386/143/29 385/143/29
f 388/143/29 407/143/29 329/143/29
f 385/143/29 388/143/29 329/143/29
f 327/143/29 387/143/29 386/143/29
f 367/143/29 365/143/29 358/143/29
f 392/143/29 323/143/29 391/143/29
f 405/143/29 406/143/29 330/143/29
f 406/143/29 398/143/29 330/143/29
f 403/143/29 402/143/29 331/143/29
f 402/143/29 332/143/29 331/143/29
f 398/143/29 403/143/29 330/143/29
f 405/143/30 408/143/30 409/143/30
f 408/143/30 410/143/30 411/143/30
o loop_once
v -0.481129 -0.224744 0.000000
v -0.477421 -0.182749 0.000000
v -0.466740 -0.144172 0.000000
v -0.449752 -0.109056 0.000000
v -0.427125 -0.077447 0.000000
v -0.399525 -0.049390 0.000000
v -0.367617 -0.024928 0.000000
v -0.332069 -0.004107 0.000000
v -0.293546 0.013029 0.000000
v -0.252715 0.026434 0.000000
v 0.006635 0.026434 0.000000
v 0.047466 0.013029 0.000000
v 0.085988 -0.004107 0.000000
v 0.121537 -0.024928 0.000000
v 0.153444 -0.049390 0.000000
v 0.181045 -0.077447 0.000000
v 0.203672 -0.109056 0.000000
v 0.220659 -0.144172 0.000000
v 0.231340 -0.182749 0.000000
v 0.235049 -0.224744 0.000000
v 0.231341 -0.266738 0.000000
v 0.220659 -0.305316 0.000000
v 0.203672 -0.340431 0.000000
v 0.181045 -0.372040 0.000000
v 0.153444 -0.400098 0.000000
v 0.121537 -0.424559 0.000000
v 0.085988 -0.445380 0.000000
v 0.047466 -0.462516 0.000000
v 0.006635 -0.475922 0.000000
v -0.035837 -0.485552 0.000000
v -0.079284 -0.491364 0.000000
v -0.123040 -0.493311 0.000000
v -0.166796 -0.491363 0.000000
v -0.210243 -0.485552 0.000000
v -0.252715 -0.475922 0.000000
v -0.293546 -0.462516 0.000000
v -0.332069 -0.445380 0.000000
v -0.367617 -0.424559 0.000000
v -0.399525 -0.400098 0.000000
v -0.427125 -0.372040 0.000000
v -0.449752 -0.340431 0.000000
v -0.466740 -0.305316 0.000000
v -0.477421 -0.266738 0.000000
v -0.363628 -0.253254 0.000000
v -0.355176 -0.279162 0.000000
v -0.341736 -0.302183 0.000000
v -0.302757 -0.338725 0.000000
v -0.323998 -0.322086 0.000000
v -0.278878 -0.352061 0.000000
v -0.253260 -0.362195 0.000000
v -0.200149 -0.374102 0.000000
v -0.226769 -0.369395 0.000000
v -0.173907 -0.376878 0.000000
v 0.032798 -0.352061 0.000000
v 0.056677 -0.338725 0.000000
v 0.095655 -0.147305 0.000000
v 0.077918 -0.322086 0.000000
v 0.077918 -0.127401 0.000000
v 0.109095 -0.170325 0.000000
v 0.120460 -0.224744 0.000000
v 0.117548 -0.253254 0.000000
v 0.117548 -0.196234 0.000000
v 0.095656 -0.302183 0.000000
v 0.109095 -0.279162 0.000000
v -0.323998 -0.127401 0.000000
v -0.253260 -0.087292 0.000000
v -0.278878 -0.097426 0.000000
v -0.302757 -0.110762 0.000000
v -0.226769 -0.080092 0.000000
v -0.366541 -0.224744 0.000000
v -0.363628 -0.196234 0.000000
v -0.355176 -0.170325 0.000000
v -0.341736 -0.147305 0.000000
v -0.123040 -0.378722 0.000000
v -0.148239 -0.378288 0.000000
v -0.097841 -0.378288 0.000000
v -0.072173 -0.376878 0.000000
v -0.019311 -0.369395 0.000000
v -0.019311 -0.080092 0.000000
v -0.045931 -0.374102 0.000000
v 0.007180 -0.362195 0.000000
v 0.056677 -0.110762 0.000000
v 0.032798 -0.097426 0.000000
v 0.007180 -0.087292 0.000000
v -0.226329 0.032417 0.000000
v -0.019752 0.032417 0.000000
v -0.019752 -0.080014 0.000000
v -0.226329 -0.080014 0.000000
v -0.019752 0.085567 0.000000
v -0.019752 -0.133164 0.000000
v -0.203624 -0.023798 0.000000
v -0.203624 -0.023798 0.000000
v 0.250880 0.466414 -0.000000
v 0.205112 0.461906 -0.000000
v 0.161104 0.448556 -0.000000
v 0.120545 0.426877 -0.000000
v 0.084995 0.397702 -0.000000
v 0.055820 0.362152 -0.000000
v 0.034141 0.321593 -0.000000
v 0.020791 0.277584 -0.000000
v 0.016283 0.231817 -0.000000
v 0.020791 0.186049 -0.000000
v 0.034141 0.142040 -0.000000
v 0.055820 0.101482 -0.000000
v 0.084995 0.065932 -0.000000
v 0.120545 0.036756 -0.000000
v 0.161104 0.015077 -0.000000
v 0.205112 0.001727 -0.000000
v 0.250880 -0.002780 -0.000000
v 0.296648 0.001727 -0.000000
v 0.340656 0.015077 -0.000000
v 0.381215 0.036756 -0.000000
v 0.416765 0.065932 -0.000000
v 0.445940 0.101482 -0.000000
v 0.467619 0.142040 -0.000000
v 0.480969 0.186049 -0.000000
v 0.485477 0.231817 -0.000000
v 0.480969 0.277584 -0.000000
v 0.467619 0.321593 -0.000000
v 0.445940 0.362152 -0.000000
v 0.416765 0.397702 -0.000000
v 0.381215 0.426877 -0.000000
v 0.340656 0.448556 -0.000000
v 0.296648 0.461906 -0.000000
v 0.297702 0.401522 -0.000000
v 0.228673 0.330351 -0.000000
v 0.200945 0.352370 -0.000000
v 0.297702 0.161575 -0.000000
v 0.228673 0.365910 -0.000000
v 0.366731 0.161575 -0.000000
v 0.366731 0.132519 -0.000000
v 0.159645 0.132519 -0.000000
v 0.159645 0.161575 -0.000000
v 0.154542 0.329710 -0.000000
v 0.228673 0.161575 -0.000000
vn -0.0000 -0.0000 1.0000
vn -0.0000 -0.0000 -1.0000
vn -0.0000 1.0000 -0.0000
vt 0.000000 0.000000
s 0
f 466/144/31 465/144/31 438/144/31
f 413/144/31 481/144/31 482/144/31
f 423/144/31 422/144/31 495/144/31
f 497/144/32 501/144/32 498/144/32
f 500/144/31 503/144/31 501/144/31
f 536/144/32 540/144/32 504/144/32
f 542/144/32 541/144/32 526/144/32
f 430/144/31 429/144/31 473/144/31
f 429/144/31 428/144/31 470/144/31
f 428/144/31 427/144/31 467/144/31
f 427/144/31 426/144/31 467/144/31
f 428/144/31 467/144/31 470/144/31
f 426/144/31 425/144/31 469/144/31
f 425/144/31 424/144/31 493/144/31
f 469/144/31 425/144/31 493/144/31
f 424/144/31 494/144/31 493/144/31
f 431/144/31 430/144/31 471/144/31
f 429/144/31 470/144/31 473/144/31
f 433/144/31 432/144/31 472/144/31
f 432/144/31 431/144/31 471/144/31
f 435/144/31 434/144/31 474/144/31
f 434/144/31 433/144/31 475/144/31
f 475/144/31 433/144/31 472/144/31
f 437/144/31 436/144/31 468/144/31
f 436/144/31 435/144/31 474/144/31
f 437/144/31 468/144/31 466/144/31
f 439/144/31 438/144/31 465/144/31
f 438/144/31 437/144/31 466/144/31
f 439/144/31 465/144/31 492/144/31
f 441/144/31 440/144/31 491/144/31
f 440/144/31 439/144/31 492/144/31
f 441/144/31 491/144/31 488/144/31
f 443/144/31 442/144/31 487/144/31
f 442/144/31 441/144/31 488/144/31
f 445/144/31 444/144/31 464/144/31
f 444/144/31 443/144/31 486/144/31
f 445/144/31 464/144/31 462/144/31
f 447/144/31 446/144/31 461/144/31
f 446/144/31 445/144/31 462/144/31
f 461/144/31 446/144/31 463/144/31
f 460/144/31 448/144/31 447/144/31
f 461/144/31 460/144/31 447/144/31
f 442/144/31 488/144/31 487/144/31
f 432/144/31 471/144/31 472/144/31
f 469/144/31 467/144/31 426/144/31
f 463/144/31 446/144/31 462/144/31
f 430/144/31 473/144/31 471/144/31
f 464/144/31 444/144/31 486/144/31
f 485/144/31 486/144/31 443/144/31
f 434/144/31 475/144/31 474/144/31
f 487/144/31 485/144/31 443/144/31
f 474/144/31 468/144/31 436/144/31
f 491/144/31 440/144/31 489/144/31
f 489/144/31 440/144/31 492/144/31
f 499/144/31 496/144/31 421/144/31
f 421/144/31 420/144/31 477/144/31
f 420/144/31 419/144/31 478/144/31
f 419/144/31 418/144/31 479/144/31
f 418/144/31 417/144/31 476/144/31
f 479/144/31 418/144/31 476/144/31
f 417/144/31 416/144/31 484/144/31
f 416/144/31 415/144/31 484/144/31
f 417/144/31 484/144/31 476/144/31
f 415/144/31 414/144/31 483/144/31
f 414/144/31 413/144/31 482/144/31
f 483/144/31 414/144/31 482/144/31
f 413/144/31 412/144/31 481/144/31
f 412/144/31 454/144/31 481/144/31
f 481/144/31 454/144/31 455/144/31
f 454/144/31 453/144/31 455/144/31
f 453/144/31 452/144/31 456/144/31
f 452/144/31 451/144/31 457/144/31
f 451/144/31 450/144/31 457/144/31
f 452/144/31 457/144/31 456/144/31
f 450/144/31 449/144/31 459/144/31
f 449/144/31 448/144/31 458/144/31
f 459/144/31 449/144/31 458/144/31
f 448/144/31 460/144/31 458/144/31
f 453/144/31 456/144/31 455/144/31
f 420/144/31 478/144/31 477/144/31
f 480/144/31 499/144/31 421/144/31
f 477/144/31 480/144/31 421/144/31
f 419/144/31 479/144/31 478/144/31
f 459/144/31 457/144/31 450/144/31
f 484/144/31 415/144/31 483/144/31
f 497/144/31 498/144/31 422/144/31
f 498/144/31 490/144/31 422/144/31
f 495/144/31 494/144/31 423/144/31
f 494/144/31 424/144/31 423/144/31
f 490/144/31 495/144/31 422/144/31
f 497/144/33 500/144/33 501/144/33
f 500/144/33 502/144/33 503/144/33
f 538/144/32 506/144/32 540/144/32
f 506/144/32 505/144/32 540/144/32
f 505/144/32 504/144/32 540/144/32
f 504/144/32 535/144/32 536/144/32
f 535/144/32 534/144/32 536/144/32
f 537/144/32 546/144/32 544/144/32
f 545/144/32 537/144/32 544/144/32
f 506/144/32 538/144/32 507/144/32
f 538/144/32 545/144/32 507/144/32
f 508/144/32 507/144/32 545/144/32
f 510/144/32 509/144/32 545/144/32
f 509/144/32 508/144/32 545/144/32
f 512/144/32 511/144/32 545/144/32
f 511/144/32 510/144/32 545/144/32
f 514/144/32 513/144/32 544/144/32
f 513/144/32 512/144/32 544/144/32
f 516/144/32 515/144/32 543/144/32
f 515/144/32 514/144/32 544/144/32
f 543/144/32 515/144/32 544/144/32
f 518/144/32 517/144/32 543/144/32
f 517/144/32 516/144/32 543/144/32
f 520/144/32 519/144/32 543/144/32
f 519/144/32 518/144/32 543/144/32
f 522/144/32 521/144/32 542/144/32
f 521/144/32 520/144/32 542/144/32
f 524/144/32 523/144/32 542/144/32
f 523/144/32 522/144/32 542/144/32
f 526/144/32 525/144/32 542/144/32
f 525/144/32 524/144/32 542/144/32
f 528/144/32 527/144/32 541/144/32
f 527/144/32 526/144/32 541/144/32
f 530/144/32 529/144/32 541/144/32
f 529/144/32 528/144/32 541/144/32
f 532/144/32 531/144/32 536/144/32
f 531/144/32 530/144/32 541/144/32
f 536/144/32 531/144/32 541/144/32
f 534/144/32 533/144/32 536/144/32
f 533/144/32 532/144/32 536/144/32
f 539/144/32 536/144/32 541/144/32
f 542/144/32 520/144/32 543/144/32
f 545/144/32 544/144/32 512/144/32
o +
v -0.500000 0.042566 0.012924
v -0.500000 -0.068413 0.012924
v 0.500000 0.042566 0.012924
v 0.500000 -0.068413 0.012924
v 0.055490 0.487076 0.012924
v -0.055490 0.487076 0.012924
v 0.055490 -0.512923 0.012924
v -0.055490 -0.512924 0.012924
vn -0.0000 -0.0000 1.0000
vt 1.000000 0.000000
vt 0.000000 1.000000
vt 0.000000 0.000000
vt 1.000000 1.000000
s 0
f 548/145/34 549/146/34 547/147/34
f 552/145/34 553/146/34 551/147/34
f 548/145/34 550/148/34 549/146/34
f 552/145/34 554/148/34 553/146/34
o magnifying_glass
v -0.125000 0.483403 0.000000
v -0.198159 0.476198 0.000000
v -0.268506 0.454858 0.000000
v -0.333339 0.420204 0.000000
v -0.390165 0.373568 0.000000
v -0.436801 0.316742 0.000000
v -0.471455 0.251910 0.000000
v -0.492794 0.181562 -0.000000
v -0.500000 0.108403 -0.000000
v -0.492794 0.035244 -0.000000
v -0.471455 -0.035103 -0.000000
v -0.436801 -0.099936 -0.000000
v -0.390165 -0.156762 -0.000000
v -0.333339 -0.203398 -0.000000
v -0.268506 -0.238052 -0.000000
v -0.198159 -0.259391 -0.000000
v -0.125000 -0.266597 -0.000000
v -0.051841 -0.259391 -0.000000
v 0.018506 -0.238052 -0.000000
v 0.083339 -0.203398 -0.000000
v 0.140165 -0.156762 -0.000000
v 0.186801 -0.099936 -0.000000
v 0.221455 -0.035103 -0.000000
v 0.242794 0.035244 -0.000000
v 0.250000 0.108403 -0.000000
v 0.242794 0.181562 -0.000000
v 0.221455 0.251910 0.000000
v 0.186801 0.316742 0.000000
v 0.140165 0.373568 0.000000
v 0.083339 0.420204 0.000000
v 0.018506 0.454858 0.000000
v -0.051841 0.476198 0.000000
v -0.382484 0.108403 -0.000000
v -0.362884 0.009868 -0.000000
v -0.377537 0.058171 -0.000000
v -0.377537 0.158636 -0.000000
v -0.307069 -0.073665 -0.000000
v -0.339090 -0.034647 -0.000000
v -0.339090 0.251454 0.000000
v -0.362884 0.206938 -0.000000
v -0.307069 0.290472 0.000000
v -0.223535 0.346288 0.000000
v -0.223535 -0.129481 -0.000000
v -0.268051 0.322494 0.000000
v -0.125000 0.365887 0.000000
v -0.175233 -0.144133 -0.000000
v -0.125000 -0.149081 -0.000000
v -0.175233 0.360940 0.000000
v -0.268051 -0.105687 -0.000000
v -0.074767 -0.144133 -0.000000
v -0.074767 0.360940 0.000000
v 0.018051 0.322494 0.000000
v 0.018051 -0.105687 -0.000000
v -0.026465 0.346288 0.000000
v -0.026465 -0.129481 -0.000000
v 0.089090 -0.034647 -0.000000
v 0.089090 0.251454 0.000000
v 0.132484 0.108403 -0.000000
v 0.127537 0.158636 -0.000000
v 0.127537 0.058171 -0.000000
v 0.112884 0.206938 -0.000000
v 0.057069 -0.073665 -0.000000
v 0.112884 0.009868 -0.000000
v 0.057069 0.290472 0.000000
v 0.420925 -0.513944 -0.000000
v 0.500365 -0.434504 -0.000000
v 0.054870 -0.140345 0.000000
v 0.134310 -0.060905 0.000000
vn -0.0000 -0.0000 1.0000
vt 0.000000 0.000000
vt 1.000000 0.000000
vt 0.000000 1.000000
vt 1.000000 1.000000
s 0
f 555/149/35 599/149/35 605/149/35
f 571/149/35 601/149/35 600/149/35
f 620/150/35 621/151/35 619/149/35
f 613/149/35 612/149/35 579/149/35
f 579/149/35 580/149/35 613/149/35
f 580/149/35 581/149/35 615/149/35
f 581/149/35 582/149/35 611/149/35
f 582/149/35 583/149/35 618/149/35
f 583/149/35 584/149/35 618/149/35
f 584/149/35 585/149/35 606/149/35
f 618/149/35 584/149/35 606/149/35
f 585/149/35 586/149/35 608/149/35
f 586/149/35 555/149/35 605/149/35
f 608/149/35 586/149/35 605/149/35
f 555/149/35 556/149/35 602/149/35
f 556/149/35 557/149/35 596/149/35
f 557/149/35 558/149/35 598/149/35
f 558/149/35 559/149/35 595/149/35
f 559/149/35 560/149/35 595/149/35
f 560/149/35 561/149/35 593/149/35
f 595/149/35 560/149/35 593/149/35
f 561/149/35 562/149/35 594/149/35
f 562/149/35 563/149/35 590/149/35
f 594/149/35 562/149/35 590/149/35
f 563/149/35 587/149/35 590/149/35
f 556/149/35 596/149/35 602/149/35
f 558/149/35 595/149/35 598/149/35
f 580/149/35 615/149/35 613/149/35
f 582/149/35 618/149/35 611/149/35
f 611/149/35 615/149/35 581/149/35
f 594/149/35 593/149/35 561/149/35
f 606/149/35 585/149/35 608/149/35
f 557/149/35 598/149/35 596/149/35
f 555/149/35 602/149/35 599/149/35
f 589/149/35 587/149/35 563/149/35
f 563/149/35 564/149/35 589/149/35
f 564/149/35 565/149/35 588/149/35
f 565/149/35 566/149/35 592/149/35
f 566/149/35 567/149/35 591/149/35
f 567/149/35 568/149/35 591/149/35
f 568/149/35 569/149/35 603/149/35
f 591/149/35 568/149/35 603/149/35
f 569/149/35 570/149/35 597/149/35
f 570/149/35 571/149/35 600/149/35
f 597/149/35 570/149/35 600/149/35
f 571/149/35 572/149/35 604/149/35
f 572/149/35 573/149/35 609/149/35
f 573/149/35 574/149/35 607/149/35
f 574/149/35 575/149/35 616/149/35
f 575/149/35 576/149/35 616/149/35
f 576/149/35 577/149/35 610/149/35
f 616/149/35 576/149/35 610/149/35
f 577/149/35 578/149/35 617/149/35
f 578/149/35 579/149/35 614/149/35
f 617/149/35 578/149/35 614/149/35
f 579/149/35 612/149/35 614/149/35
f 572/149/35 609/149/35 604/149/35
f 574/149/35 616/149/35 607/149/35
f 564/149/35 588/149/35 589/149/35
f 566/149/35 591/149/35 592/149/35
f 592/149/35 588/149/35 565/149/35
f 617/149/35 610/149/35 577/149/35
f 603/149/35 569/149/35 597/149/35
f 573/149/35 607/149/35 609/149/35
f 571/149/35 604/149/35 601/149/35
f 620/150/35 622/152/35 621/151/35
o pencil
v -0.353553 -0.366477 0.012924
v -0.353553 -0.366477 0.012924
v 0.283438 0.410745 0.012924
v 0.423669 0.270514 0.012924
v -0.260882 -0.133575 0.012924
v -0.120651 -0.273806 0.012924
v -0.275162 -0.147854 0.012924
v -0.134930 -0.288085 0.012924
vn -0.0000 -0.0000 1.0000
vn -0.0000 1.0000 -0.0000
vt 0.000000 0.300926
vt 1.000000 1.000000
vt 0.000000 1.000000
vt 1.000000 0.000000
vt 0.000000 0.210021
vt 0.000000 0.000000
vt 1.000000 0.300926
vt 1.000000 0.210021
s 0
f 627/153/36 626/154/36 625/155/36
f 624/156/37 629/157/37 623/158/37
f 627/153/36 628/159/36 626/154/36
f 624/156/36 630/160/36 629/157/36
o reload
v -0.270325 0.394009 0.000000
v -0.186203 0.438973 0.000000
v -0.094926 0.466662 0.000000
v -0.000000 0.476011 0.000000
v -0.344059 0.333497 0.000000
v -0.404571 0.259764 0.000000
v -0.449535 0.175642 0.000000
v -0.477223 0.084364 -0.000000
v -0.486573 -0.010562 -0.000000
v -0.477223 -0.105487 -0.000000
v -0.449535 -0.196765 -0.000000
v -0.404571 -0.280887 -0.000000
v -0.344059 -0.354620 -0.000000
v -0.270325 -0.415132 -0.000000
v -0.186203 -0.460096 -0.000000
v -0.094926 -0.487785 -0.000000
v -0.000000 -0.497134 -0.000000
v 0.094926 -0.487785 -0.000000
v 0.186203 -0.460096 -0.000000
v 0.270325 -0.415132 -0.000000
v 0.344059 -0.354620 -0.000000
v 0.404571 -0.280887 -0.000000
v 0.449535 -0.196765 -0.000000
v 0.477223 -0.105487 -0.000000
v 0.486573 -0.010562 -0.000000
v 0.344059 0.333497 0.000000
v 0.270325 0.394009 0.000000
v 0.186203 0.438973 0.000000
v 0.094926 0.466662 0.000000
v 0.200003 -0.309887 -0.000000
v -0.199433 0.287911 0.000000
v 0.254216 -0.265395 -0.000000
v -0.137581 0.320971 0.000000
v 0.298927 -0.210915 -0.000000
v 0.318071 -0.175099 -0.000000
v -0.070138 0.341430 0.000000
v -0.027236 0.345656 0.000000
v 0.161717 0.308070 0.000000
v 0.199737 0.287749 0.000000
v 0.254216 0.243038 0.000000
v -0.356670 -0.040076 -0.000000
v -0.359516 -0.011178 -0.000000
v -0.352608 0.058960 -0.000000
v -0.332150 0.126403 0.000000
v -0.318462 0.152011 0.000000
v 0.332150 -0.148759 -0.000000
v 0.359516 -0.011178 -0.000000
v 0.352608 -0.081317 -0.000000
v -0.137581 -0.343328 -0.000000
v -0.165393 -0.328462 -0.000000
v -0.000000 -0.370695 -0.000000
v 0.031384 -0.367604 -0.000000
v -0.070138 -0.363787 -0.000000
v -0.000000 0.348338 0.000000
v 0.070138 0.341430 0.000000
v 0.137581 0.320971 0.000000
v 0.199737 -0.310105 -0.000000
v -0.199737 0.287749 0.000000
v 0.137581 -0.343328 -0.000000
v -0.254216 0.243038 0.000000
v -0.199737 -0.310105 -0.000000
v 0.070138 -0.363787 -0.000000
v -0.352608 -0.081317 -0.000000
v -0.298927 0.188558 0.000000
v -0.254216 -0.265395 -0.000000
v -0.332150 -0.148759 -0.000000
v -0.298927 -0.210915 -0.000000
v 0.437121 -0.012451 -0.000000
v 0.477223 -0.012535 -0.000000
v 0.304416 0.279686 0.000000
v 0.344956 0.299597 0.000000
v 0.473626 0.445756 0.047337
v 0.059280 0.195951 0.047337
v 0.420843 0.064771 0.047337
v 0.420843 0.064771 0.047337
vn -0.0000 -0.0000 1.0000
vt 0.000000 0.000000
vt 1.000000 0.000000
vt 0.000000 1.000000
vt 1.000000 1.000000
s 0
f 650/161/38 664/161/38 662/161/38
f 666/161/38 631/161/38 663/161/38
f 635/161/38 638/161/38 631/161/38
f 636/161/38 638/161/38 635/161/38
f 636/161/38 637/161/38 638/161/38
f 638/161/38 639/161/38 640/161/38
f 640/161/38 641/161/38 642/161/38
f 642/161/38 643/161/38 646/161/38
f 643/161/38 644/161/38 646/161/38
f 644/161/38 645/161/38 646/161/38
f 646/161/38 647/161/38 648/161/38
f 648/161/38 649/161/38 646/161/38
f 649/161/38 650/161/38 646/161/38
f 650/161/38 651/161/38 654/161/38
f 651/161/38 652/161/38 654/161/38
f 652/161/38 653/161/38 654/161/38
f 654/161/38 655/161/38 699/161/38
f 657/161/38 659/161/38 656/161/38
f 657/161/38 658/161/38 659/161/38
f 659/161/38 634/161/38 633/161/38
f 633/161/38 632/161/38 659/161/38
f 632/161/38 631/161/38 659/161/38
f 638/161/38 640/161/38 631/161/38
f 674/161/38 640/161/38 673/161/38
f 654/161/38 698/161/38 650/161/38
f 676/161/38 650/161/38 698/161/38
f 646/161/38 683/161/38 679/161/38
f 659/161/38 685/161/38 686/161/38
f 650/161/38 687/161/38 689/161/38
f 642/161/38 697/161/38 696/161/38
f 631/161/38 690/161/38 688/161/38
f 700/161/38 669/161/38 670/161/38
f 701/161/38 656/161/38 659/161/38
f 703/162/38 704/163/38 702/161/38
f 662/161/38 660/161/38 650/161/38
f 650/161/38 665/161/38 664/161/38
f 666/161/38 667/161/38 631/161/38
f 631/161/38 661/161/38 663/161/38
f 674/161/38 675/161/38 631/161/38
f 640/161/38 642/161/38 671/161/38
f 640/161/38 671/161/38 672/161/38
f 674/161/38 631/161/38 640/161/38
f 640/161/38 672/161/38 673/161/38
f 654/161/38 699/161/38 698/161/38
f 676/161/38 665/161/38 650/161/38
f 698/161/38 677/161/38 678/161/38
f 678/161/38 676/161/38 698/161/38
f 679/161/38 680/161/38 646/161/38
f 680/161/38 642/161/38 646/161/38
f 646/161/38 650/161/38 682/161/38
f 646/161/38 682/161/38 681/161/38
f 646/161/38 681/161/38 683/161/38
f 686/161/38 668/161/38 659/161/38
f 668/161/38 700/161/38 701/161/38
f 659/161/38 668/161/38 701/161/38
f 659/161/38 631/161/38 667/161/38
f 659/161/38 667/161/38 684/161/38
f 659/161/38 684/161/38 685/161/38
f 692/161/38 682/161/38 650/161/38
f 650/161/38 660/161/38 687/161/38
f 689/161/38 692/161/38 650/161/38
f 693/161/38 671/161/38 642/161/38
f 642/161/38 680/161/38 691/161/38
f 642/161/38 691/161/38 695/161/38
f 696/161/38 693/161/38 642/161/38
f 642/161/38 695/161/38 697/161/38
f 631/161/38 675/161/38 694/161/38
f 631/161/38 694/161/38 690/161/38
f 688/161/38 661/161/38 631/161/38
f 700/161/38 668/161/38 669/161/38
f 703/162/38 705/164/38 704/163/38
